# xmcd CD database file generated by OrangeCD 5.2
#
# Track frame offsets:
#	150
#	16885
#	30856
#	46311
#	65515
#	86576
#	103717
#	120897
#	134131
#	149666
#	167210
#
# Disc length: 2466 seconds
#
# Revision: 0
# Processed by: cddbd v1.5.2PL0 Copyright (c) Steve Scherf et al.
# Submitted via: OrangeCD 5.2
#
DISCID=9209a00b
DTITLE=Martina McBride - Wake up laughing
DYEAR=2007
DGENRE=Country
TTITLE0=If I had your name
TTITLE1=Cry cry (til the sun shines)
TTITLE2=Tryin' to find a reason
TTITLE3=For these times
TTITLE4=Anyway
TTITLE5=How I feel
TTITLE6=I'll still be me
TTITLE7=Beautiful again
TTITLE8=Everybody does
TTITLE9=House of a thousand dreams
TTITLE10=Love land
EXTD=
EXTT0=
EXTT1=
EXTT2=
EXTT3=
EXTT4=
EXTT5=
EXTT6=
EXTT7=
EXTT8=
EXTT9=
EXTT10=
PLAYORDER=
